<?xml version="1.0" encoding="UTF-8" standalone="no"?>
<svg
   width="512"
   height="512"
   preserveAspectRatio="none"
   style="display:block"
   viewBox="0 0 1024 1024"
   version="1.1"
   id="svg2"
   sodipodi:docname="icon.svg"
   inkscape:version="1.4.2 (f4327f4, 2025-05-13)"
   inkscape:export-filename="icon.png"
   inkscape:export-xdpi="96"
   inkscape:export-ydpi="96"
   xmlns:inkscape="http://www.inkscape.org/namespaces/inkscape"
   xmlns:sodipodi="http://sodipodi.sourceforge.net/DTD/sodipodi-0.dtd"
   xmlns="http://www.w3.org/2000/svg"
   xmlns:svg="http://www.w3.org/2000/svg">
  <defs
     id="defs2" />
  <sodipodi:namedview
     id="namedview2"
     pagecolor="#ffffff"
     bordercolor="#000000"
     borderopacity="0.25"
     inkscape:showpageshadow="2"
     inkscape:pageopacity="0.0"
     inkscape:pagecheckerboard="0"
     inkscape:deskcolor="#d1d1d1"
     inkscape:zoom="0.66381988"
     inkscape:cx="583.74269"
     inkscape:cy="261.36608"
     inkscape:window-width="1920"
     inkscape:window-height="1057"
     inkscape:window-x="-8"
     inkscape:window-y="-8"
     inkscape:window-maximized="1"
     inkscape:current-layer="g2"
     inkscape:export-bgcolor="#ffffff00" />
  <g
     id="g2"
     transform="translate(53.551446,157.3666)">
    <path
       d="m 410.13921,32.62652 c 1.99,55.72 0.995,119.4 0,175.12 v 298.5 l 0.995,170.145 h 71.64 v -234.82 h 28.855 c 0.995,77.61 -1.99,158.205 0.995,234.82 h 88.555 q 33.83,0.995 67.66,-1.99 a 300.49,300.49 0 0 0 180.095,-88.555 c 65.67,-67.66 95.52,-142.285 94.525,-236.81 -0.995,-84.575 -35.82,-165.17 -95.52,-224.87 -51.74,-51.74 -126.365,-84.575 -199,-90.545 l -45.77,-0.995 h -90.545 c -1.99,73.63 -0.995,152.235 -0.995,225.865 h -29.85 q 1.99,-113.43 0,-224.87 z m 201.985,155.22 41.79,1.99 c 30.845,2.985 55.72,13.93 89.55,45.77 30.845,33.83 42.785,63.68 44.775,103.48 l 0.995,6.965 v 17.91 l -0.995,6.965 c -1.99,40.795 -13.93,70.645 -44.775,104.475 a 145.27,145.27 0 0 1 -98.505,46.765 l -56.715,0.995 h -6.965 v -335.315 h 30.845 m -116.415,102.485 a 59.718653,59.718653 0 1 1 -2.985,119.4 59.718653,59.718653 0 0 1 2.985,-119.4"
       style="fill:#766a57;fill-opacity:1;stroke-width:0.995"
       id="path1" />
    <path
       d="m 36.019211,89.34152 h -8.955 c -34.8250004,7.96 -58.705,41.79 -52.735,78.605 2.985,20.895 21.8899996,56.715 30.8449996,77.61 l 43.7800004,100.495 93.529999,211.935 c 10.945,22.885 18.905,46.765 31.84,69.65 14.925,28.855 46.765,41.79 76.615,39.8 30.845,1.99 62.685,-10.945 77.61,-39.8 q 16.915,-34.825 30.845,-67.66 v -330.34 l -1.99,5.97 -106.465,242.78 -105.47,-242.78 -25.87,-59.7 c -8.955,-19.9 -15.92,-44.775 -28.854999,-61.69 -12.935,-17.91 -33.83,-24.875 -54.725,-24.875"
       style="fill:#498475;fill-opacity:1;stroke-width:0.995"
       id="path2" />
  </g>
</svg>
