<?xml version="1.0" encoding="UTF-8" standalone="no"?>
<svg
   version="1.1"
   style="display:block"
   viewBox="0 0 970 644"
   width="485"
   height="322"
   preserveAspectRatio="none"
   id="svg5"
   sodipodi:docname="icon_raw.svg"
   inkscape:version="1.4.2 (f4327f4, 2025-05-13)"
   xmlns:inkscape="http://www.inkscape.org/namespaces/inkscape"
   xmlns:sodipodi="http://sodipodi.sourceforge.net/DTD/sodipodi-0.dtd"
   xmlns="http://www.w3.org/2000/svg"
   xmlns:svg="http://www.w3.org/2000/svg">
  <defs
     id="defs5" />
  <sodipodi:namedview
     id="namedview5"
     pagecolor="#ffffff"
     bordercolor="#000000"
     borderopacity="0.25"
     inkscape:showpageshadow="2"
     inkscape:pageopacity="0.0"
     inkscape:pagecheckerboard="0"
     inkscape:deskcolor="#d1d1d1"
     inkscape:zoom="0.70710678"
     inkscape:cx="427.7996"
     inkscape:cy="552.2504"
     inkscape:window-width="1920"
     inkscape:window-height="1057"
     inkscape:window-x="-8"
     inkscape:window-y="-8"
     inkscape:window-maximized="1"
     inkscape:current-layer="g1" />
  <g
     id="g1"
     transform="matrix(0.99477417,0,0,0.9954188,-507.33619,-699.96657)">
    <path
       fill="rgb(109,96,80)"
       d="m 949.252,703.188 c 21.874,1.072 49.609,0.383 71.998,0.467 1.43,74.127 0.28,151.698 0.13,226.076 10.12,-0.278 19.88,-0.123 29.98,0.023 -0.04,-74.213 -1.11,-152.299 0.24,-226.294 l 91.87,0.02 c 13.63,0.051 32.07,-0.297 45.4,0.789 72.93,5.942 147.91,39.222 200.21,90.552 60.27,60.176 94.7,141.475 96,226.629 0.83,94.79 -28.6,169.47 -95.19,237.19 -0.74,0.77 -1.5,1.54 -2.26,2.3 -48.04,48.4 -111.04,79.13 -178.75,87.19 -21.85,2.52 -45.7,1.98 -67.81,1.96 l -89.19,-0.11 c -2.5,-76.64 0.18,-158.4 -0.81,-235.78 -9.36,0.44 -19.93,0.1 -29.38,0 -0.82,78.18 0.02,157.48 0.06,235.76 -23.731,0.33 -48.092,0.08 -71.863,0.06 -1.346,-55.54 -0.495,-115.32 -0.524,-171.18 l 0.06,-299.367 c 0.101,-56.41 1.854,-120.628 -0.171,-176.285 z"
       id="path2"
       style="fill:#776c57;fill-opacity:1" />
    <path
       id="path3"
       d="m 1152.1016,858.82031 c -8.1279,-0.0187 -16.2412,0.0566 -24.2305,0.125 -2.2385,0.007 -4.5151,0.009 -6.832,0.008 -2e-4,0.015 10e-5,0.0319 0,0.0469 -0.016,1.2e-4 -0.034,-1.2e-4 -0.051,0 5e-4,1.34801 0,2.6942 0,4.04297 0.01,108.81552 -1.272,220.05682 0,328.61722 -10e-5,1.3487 0,2.6949 0,4.0429 0.016,1e-4 0.034,-10e-5 0.051,0 10e-5,0.015 -2e-4,0.032 0,0.047 2.3195,0 4.5989,0 6.8398,0.012 22.1094,0.074 40.492,0.4843 57.0899,-0.7226 2.2579,-0.1298 4.5071,-0.2764 6.7421,-0.4453 0.8044,-0.1057 1.6094,-0.2447 2.418,-0.4141 30.5084,-3.5927 55.8505,-14.4215 89.5,-46.0899 31.3928,-34.17 43.1953,-64.0392 45.3789,-104.7187 0.1748,-2.3398 0.6938,-4.5704 0.7734,-6.9375 0.104,-3.0926 0.1673,-6.1184 0.1915,-9.082 -0.024,-2.9637 -0.088,-5.9894 -0.1915,-9.0821 -0.08,-2.367 -0.5986,-4.5977 -0.7734,-6.9375 -2.1836,-40.67944 -13.9861,-70.54864 -45.3789,-104.71871 -33.6494,-31.66824 -58.9918,-42.4932 -89.5,-46.08594 -0.8087,-0.16945 -1.6135,-0.3123 -2.418,-0.41796 -2.2359,-0.16903 -4.4872,-0.31555 -6.7461,-0.44532 -10.809,-0.62099 -21.8497,-0.81847 -32.8632,-0.84375 z"
       style="fill:#ffffff" />
    <path
       fill="#ffffff"
       d="m 1023.2223,962.87069 c 32.8145,-5.77743 64.0579,16.30144 69.5652,49.16821 5.5074,32.8677 -16.8308,63.9172 -49.7424,69.1598 -32.5231,5.172 -63.1452,-16.8488 -68.58897,-49.3281 -5.44377,-32.48981 16.32425,-63.28956 48.76617,-68.99991 z"
       id="path4"
       style="stroke-width:0.882582" />
    <g
       id="g5"
       style="fill:#4a8475;fill-opacity:1">
      <path
         id="path5"
         style="fill:#4a8475;fill-opacity:1"
         d="m 573.33984,760 c -2.97642,0.0119 -5.94034,0.16493 -8.87109,0.44531 -35.295,7.77 -59.20489,41.86483 -53.67187,79.00781 3.05097,20.481 22.06734,57.03013 31.02734,77.20313 l 44.23437,101.23825 c 30.77,71.24 62.07507,142.2378 93.91407,213.0078 10.663,23.2 19.52725,46.9202 31.65625,69.6602 15.6746,29.3964 46.92607,42.385 77.82812,40.6836 30.90198,1.7014 62.15742,-11.2872 77.83203,-40.6836 11.77866,-22.0833 20.47998,-45.0904 30.73828,-67.6484 V 901.28906 c -0.83318,1.9418 -1.66736,3.8797 -2.5,5.81641 L 789.46094,1151.3867 683.39062,907.10547 c -8.58897,-19.978 -17.19578,-40.2657 -26.05078,-60.05469 -8.884,-19.85401 -16.38187,-44.98553 -28.92187,-62.39453 C 615.49509,766.71525 594.17478,759.91676 573.33984,760 Z" />
    </g>
  </g>
</svg>
