<svg xmlns="http://www.w3.org/2000/svg" preserveAspectRatio="none" style="display:block" viewBox="0 0 1024 1024"><path d="M410 33c2 55 1 119 0 175v298l1 170h72V442h29c1 77-2 158 1 234h88q34 1 68-2a300 300 0 0 0 180-88c66-68 95-142 94-237-1-85-35-165-95-225-52-52-126-84-199-90l-46-1h-90c-2 73-1 152-1 225h-30q2-113 0-224zm202 155 42 2c31 3 56 14 89 46 31 33 43 63 45 103l1 7v18l-1 7c-2 41-14 71-45 104a145 145 0 0 1-98 47l-57 1h-7V188zM496 290a60 60 0 1 1-3 120 60 60 0 0 1 3-120" style="fill:#766a57;fill-opacity:1;stroke-width:.995" transform="translate(54 157)"/><path d="M36 89h-9c-35 8-59 42-53 79 3 21 22 57 31 78l44 100 93 212c11 23 19 47 32 70 15 28 47 41 77 39 31 2 63-11 78-39l30-68V230l-2 6-106 242-106-242-25-60c-9-20-16-45-29-62a65 65 0 0 0-55-25" style="fill:#498475;fill-opacity:1;stroke-width:.995" transform="translate(54 157)"/></svg>